<?xml version="1.0" standalone="no"?>
<!DOCTYPE svg PUBLIC "-//W3C//DTD SVG 20010904//EN"
 "http://www.w3.org/TR/2001/REC-SVG-20010904/DTD/svg10.dtd">
<svg version="1.0" xmlns="http://www.w3.org/2000/svg"
 width="1213.000000pt" height="1280.000000pt" viewBox="0 0 1213.000000 1280.000000"
 preserveAspectRatio="xMidYMid meet">
<metadata>
Created by potrace 1.15, written by Peter Selinger 2001-2017
</metadata>
<g transform="translate(0.000000,1280.000000) scale(0.100000,-0.100000)"
fill="#000000" stroke="none">
<path d="M5645 12794 c-617 -36 -1264 -145 -1522 -254 -691 -294 -1216 -1155
-1379 -2260 -93 -629 -31 -1227 167 -1621 96 -193 248 -360 396 -437 l80 -41
7 -83 c47 -571 210 -1251 406 -1693 72 -164 76 -175 61 -175 -19 0 -457 -222
-639 -324 -800 -447 -1532 -976 -2277 -1646 -195 -176 -656 -636 -820 -819
l-120 -134 0 -176 c1 -188 10 -260 56 -439 265 -1035 1506 -1929 3299 -2377
1095 -274 2301 -369 3545 -279 1290 92 2555 369 3790 829 468 175 1008 410
1105 481 220 162 344 509 327 914 -32 744 -475 1572 -1238 2315 -580 564
-1372 1100 -2267 1532 l-174 84 18 27 c134 205 306 570 403 860 157 464 232
914 248 1470 l6 234 55 24 c156 69 381 255 529 439 184 228 280 423 335 679
31 145 31 422 0 586 -80 427 -288 865 -621 1304 -80 106 -231 285 -275 325
l-26 25 -118 -37 c-237 -75 -430 -107 -636 -107 -158 0 -261 18 -353 60 -64
29 -96 59 -196 180 -215 262 -693 444 -1347 515 -137 15 -682 28 -825 19z"/>
</g>
</svg>
